<svg xmlns="http://www.w3.org/2000/svg" xmlns:xlink="http://www.w3.org/1999/xlink" width="834" height="303" viewBox="0 0 834 303"><defs><style>.a{fill:#41d9ae;}.b{clip-path:url(#a);}.c{opacity:0.165;}.d{opacity:0.8;}.d,.e{fill:url(#b);}</style><clipPath id="a"><rect class="a" width="834" height="303" transform="translate(835 96)"/></clipPath><radialGradient id="b" cx="0.5" cy="0.5" r="0.5" gradientUnits="objectBoundingBox"><stop offset="0" stop-color="#fff"/><stop offset="1" stop-color="#fff" stop-opacity="0"/></radialGradient></defs><g class="b" transform="translate(-835 -96)"><g class="c" transform="translate(776.038 -81.172)"><path class="d" d="M1777.842,789.608,1301.881,763.8l475.962-25.81Z" transform="translate(-825.918 -334.535)"/><path class="e" d="M1769.032,290.781l-467.151,86.17,452.338-136.032Z" transform="translate(-825.918 52.311)"/><path class="e" d="M1728.386-169.637l-426.5,192.278,397.886-236.983Z" transform="translate(-825.918 406.621)"/><path class="e" d="M1658.673-560.27,1301.881-274.987,1618.2-596.771Z" transform="translate(-825.918 704.249)"/><path class="e" d="M1564.646-854.493,1301.881-495.648l213.2-384.656Z" transform="translate(-825.918 924.91)"/><path class="e" d="M1452.712-1032.264,1301.881-624.31l95.546-421.315Z" transform="translate(-825.918 1053.572)"/><path class="e" d="M1242.721-1081.462,1214.1-652.2l-28.618-429.262Z" transform="translate(-738.141 1081.463)"/><path class="e" d="M743.705-1045.625,839.25-624.31,688.42-1032.265Z" transform="translate(-363.288 1053.572)"/><path class="e" d="M282.725-880.3l213.2,384.656L233.158-854.495Z" transform="translate(-19.96 924.91)"/><path class="e" d="M-108.8-596.769l316.32,321.784L-149.273-560.269Z" transform="translate(268.444 704.247)"/><path class="e" d="M-404.19-214.338-6.3,22.644l-426.5-192.279Z" transform="translate(482.266 406.618)"/><path class="e" d="M-583.313,240.921l452.337,136.031-467.151-86.172Z" transform="translate(606.938 52.31)"/><path class="d" d="M-633.964,737.989-158,763.8l-475.963,25.808Z" transform="translate(633.965 -334.537)"/><path class="d" d="M-598.127,940.554l467.151-86.17L-583.314,990.413Z" transform="translate(606.938 -425.122)"/><path class="d" d="M-432.808,1046.662-6.3,854.384l-397.888,236.982Z" transform="translate(482.266 -425.122)"/><path class="d" d="M-149.27,1139.667,207.521,854.384-108.8,1176.166Z" transform="translate(268.441 -425.122)"/><path class="d" d="M233.16,1213.23,495.924,854.384l-213.2,384.656Z" transform="translate(-19.962 -425.122)"/><path class="d" d="M688.422,1262.338l150.83-407.954L743.705,1275.7Z" transform="translate(-363.289 -425.122)"/><path class="d" d="M1185.49,1283.645l28.617-429.261,28.617,429.261Z" transform="translate(-738.144 -425.122)"/><path class="d" d="M1397.427,1275.7l-95.547-421.314,150.83,407.955Z" transform="translate(-825.918 -425.122)"/><path class="d" d="M1515.079,1239.04l-213.2-384.656,262.764,358.848Z" transform="translate(-825.918 -425.122)"/><path class="d" d="M1618.2,1176.168,1301.881,854.384l356.792,285.284Z" transform="translate(-825.918 -425.122)"/><path class="d" d="M1699.769,1091.367,1301.881,854.384l426.5,192.279Z" transform="translate(-825.918 -425.122)"/><path class="d" d="M1754.219,990.414,1301.881,854.384l467.152,86.172Z" transform="translate(-825.918 -425.122)"/></g></g></svg>