<svg xmlns="http://www.w3.org/2000/svg" width="163.665" height="35.5" viewBox="0 0 163.665 35.5"><defs><style>.a{fill:#966d59;}.b{fill:#e55e5e;}.c{fill:#ffcf58;}.d{fill:#5dc576;}.e{fill:#63abdd;}.f{fill:#b174b5;}.g{fill:#ef6f6e;}.h{fill:#fbc648;}.i{fill:#6cd8d3;}.j{fill:#4c3327;}</style></defs><g transform="translate(-66.047 -196.837)"><path class="a" d="M127.827,227.683a1.336,1.336,0,0,1-1.414-1.414v-8.988a1.336,1.336,0,0,1,1.414-1.414h4.211c2.232,0,3.744,1.329,3.744,3.419a2.667,2.667,0,0,1-1.37,2.347,2.619,2.619,0,0,1,1.668,2.558c0,2.077-1.329,3.49-3.717,3.49Zm1.1-6.981h3.01a1.315,1.315,0,1,0,0-2.629h-3.01Zm3.307,2.091h-3.307v2.685h3.307a1.284,1.284,0,0,0,1.357-1.329A1.3,1.3,0,0,0,132.236,222.793Z" transform="translate(-21.754 -6.858)"/><path class="a" d="M146.7,220.644h4.96a1.121,1.121,0,0,1,0,2.233H146.7v2.544h5.455a1.137,1.137,0,0,1,0,2.261H145.6a1.336,1.336,0,0,1-1.414-1.414v-8.988a1.336,1.336,0,0,1,1.414-1.414h6.246a1.137,1.137,0,0,1,0,2.261H146.7Z" transform="translate(-28.158 -6.858)"/><path class="a" d="M167.346,225.332h-4.678l-.622,1.6a1.309,1.309,0,0,1-1.71.734,1.15,1.15,0,0,1-.763-1.483l4.07-9.695a1.42,1.42,0,0,1,1.357-.9,1.406,1.406,0,0,1,1.385.9l4.042,9.695a1.164,1.164,0,0,1-.75,1.483,1.31,1.31,0,0,1-1.7-.734Zm-3.8-2.2h2.911L165,219.453Z" transform="translate(-33.676 -6.755)"/><path class="a" d="M181.251,223.941l2.954-7.476a1.309,1.309,0,0,1,1.71-.734,1.15,1.15,0,0,1,.762,1.483l-4.07,9.695a1.421,1.421,0,0,1-1.357.9,1.406,1.406,0,0,1-1.385-.9l-4.042-9.695a1.164,1.164,0,0,1,.749-1.483,1.309,1.309,0,0,1,1.7.734Z" transform="translate(-39.534 -6.776)"/><path class="a" d="M197.148,220.644h4.961a1.121,1.121,0,0,1,0,2.233h-4.961v2.544H202.6a1.137,1.137,0,0,1,0,2.261h-6.557a1.336,1.336,0,0,1-1.414-1.414v-8.988a1.336,1.336,0,0,1,1.414-1.414h6.246a1.137,1.137,0,0,1,0,2.261h-5.145Z" transform="translate(-46.337 -6.858)"/><path class="a" d="M213.552,226.665a1.259,1.259,0,0,1-2.516,0v-9.383a1.336,1.336,0,0,1,1.414-1.414h3.985A3.849,3.849,0,0,1,218.568,223l1.809,3.038a1.162,1.162,0,0,1-.4,1.64,1.132,1.132,0,0,1-1.639-.424l-2.247-3.787h-2.544Zm0-5.427h2.671c1.272,0,1.682-.721,1.682-1.568s-.41-1.569-1.682-1.569h-2.671Z" transform="translate(-52.249 -6.858)"/><path class="b" d="M237.995,227.683a1.336,1.336,0,0,1-1.414-1.414v-8.988a1.336,1.336,0,0,1,1.414-1.414h4.211c2.233,0,3.744,1.329,3.744,3.419a2.667,2.667,0,0,1-1.37,2.347,2.619,2.619,0,0,1,1.668,2.558c0,2.077-1.329,3.49-3.717,3.49Zm1.1-6.981h3.009a1.315,1.315,0,1,0,0-2.629H239.1Zm3.306,2.091H239.1v2.685H242.4a1.284,1.284,0,0,0,1.357-1.329A1.3,1.3,0,0,0,242.4,222.793Z" transform="translate(-61.454 -6.858)"/><path class="c" d="M255.768,227.579a1.336,1.336,0,0,1-1.414-1.414v-9.383a1.274,1.274,0,0,1,2.544,0v8.536h4.578a1.137,1.137,0,0,1,0,2.261Z" transform="translate(-67.859 -6.755)"/><path class="d" d="M278.439,221.6c0,4.1-2.741,6.2-5.709,6.2-3,0-5.752-2.106-5.752-6.2s2.756-6.176,5.752-6.176C275.7,215.426,278.439,217.5,278.439,221.6Zm-8.945,0c0,2.459,1.469,3.972,3.236,3.972,1.724,0,3.194-1.512,3.194-3.972s-1.471-3.943-3.194-3.943C270.963,217.659,269.494,219.143,269.494,221.6Z" transform="translate(-72.408 -6.699)"/><path class="e" d="M286.364,221.6c0-4,2.6-6.176,5.794-6.176a5.127,5.127,0,0,1,4.48,2.36,1.222,1.222,0,0,1-.354,1.6,1.178,1.178,0,0,1-1.611-.255,2.918,2.918,0,0,0-2.516-1.441c-1.738,0-3.278,1.3-3.278,3.915s1.568,3.943,3.306,3.943a3.082,3.082,0,0,0,2.629-1.484,1.188,1.188,0,0,1,1.6-.24,1.221,1.221,0,0,1,.325,1.6,5.121,5.121,0,0,1-4.55,2.388C288.993,227.806,286.364,225.658,286.364,221.6Z" transform="translate(-79.394 -6.699)"/><path class="f" d="M307.809,220.626l4.678-4.678a1.177,1.177,0,0,1,1.7-.015,1.133,1.133,0,0,1-.013,1.7L311.1,220.7l3.646,5.144a1.163,1.163,0,0,1-.269,1.668,1.133,1.133,0,0,1-1.667-.3l-3.407-4.819-1.6,1.6v2.572a1.274,1.274,0,0,1-2.544,0v-9.779a1.274,1.274,0,0,1,2.544,0Z" transform="translate(-86.205 -6.754)"/><path class="g" d="M250.233,241.373v-1.644h-4.617v1.644H243v-1.644h-4.617v1.644H235.85v5.479h16.913v-5.479Z" transform="translate(-61.191 -15.457)"/><path class="h" d="M279.561,241.373v-1.644h-4.617v1.644h-2.617v-1.644H267.71v1.644h-2.531v5.479h16.914v-5.479Z" transform="translate(-71.76 -15.457)"/><path class="i" d="M308.959,240.341l-.188-1.633-4.587.527.188,1.633-2.6.3-.188-1.633-4.587.527.188,1.633-2.515.289.625,5.443,16.8-1.93-.625-5.443Z" transform="translate(-82.387 -15.089)"/><path class="j" d="M74.56,203.64a.533.533,0,1,1,0-1.066H88.031a8.348,8.348,0,0,0,.107-1.172H78.15a.533.533,0,1,1,0-1.067h9.941a5.215,5.215,0,0,0-.231-1.057H82.087a.533.533,0,0,1,0-1.066h5.09c-2.159-1.753-12.811-3.57-18.627,6.462-6.042,10.421.752,17.642.752,17.642s3,3.1,1.724.5a12.544,12.544,0,0,1,2.954-13.765c3.406-3.183,8.145-3.5,11.128-3.065,1.314.193,2.211-.9,2.673-2.347Z" transform="translate(0 0)"/><g transform="translate(68.733 205.298)"><path class="a" d="M95.616,215.807a3.209,3.209,0,0,0,.051-2.582c-.525-1.082-2.175-.832-3-.627a14.949,14.949,0,0,0-17.228.411c-.565-.15-2.762-.639-3.333.656a3.393,3.393,0,0,0,.363,3c-3.675,6.314-4.627,16.806,12.021,16.5C100.652,232.854,99.587,221.769,95.616,215.807ZM83.342,229.324a.833.833,0,0,1-.922-.586l-.669-2.2,2.3-1.558.076,3.4S84.142,229.31,83.342,229.324Zm3.1-.661a.833.833,0,0,1-.9.62c-.8.015-.817-.92-.817-.92l-.051-3.4,2.355,1.471Zm7.362-6.886c-.427,5.1-4.317,4.54-4.317,4.54a4.651,4.651,0,0,1-4.593-4.027l-.034-1.795c.084-1.739,2.115-3.08,2.115-3.08a2.769,2.769,0,0,0-2.8-2.7c-2.663.05-2.436,2.883-2.436,2.883s2.453,1.112,2.056,4.653-2.816,4.248-3.685,4.264-5.667.485-5.432-5.6,2.63-9.8,9.52-9.933S94.233,216.673,93.808,221.777Z" transform="translate(-70.246 -210.064)"/><path class="j" d="M82.56,219.1a1.322,1.322,0,1,0,1.346,1.3A1.322,1.322,0,0,0,82.56,219.1Z" transform="translate(-74.216 -213.319)"/><path class="j" d="M99.869,218.773a1.322,1.322,0,1,0,1.346,1.3A1.322,1.322,0,0,0,99.869,218.773Z" transform="translate(-80.454 -213.202)"/></g></g></svg>