<svg xmlns="http://www.w3.org/2000/svg" xmlns:xlink="http://www.w3.org/1999/xlink" width="675.695" height="337.892" viewBox="0 0 675.695 337.892"><defs><style>.a{fill:#333;}.b{fill:url(#c);}.c{fill:#1a1a1a;}.d{filter:url(#a);}</style><filter id="a" x="0" y="0" width="675.695" height="337.892" filterUnits="userSpaceOnUse"><feOffset dy="13" input="SourceAlpha"/><feGaussianBlur stdDeviation="3" result="b"/><feFlood flood-opacity="0.161"/><feComposite operator="in" in2="b"/><feComposite in="SourceGraphic"/></filter><linearGradient id="c" y1="0.5" x2="1" y2="0.5" gradientUnits="objectBoundingBox"><stop offset="0" stop-color="#4d4d4d"/><stop offset="0.1" stop-color="#333"/><stop offset="0.9" stop-color="#333"/><stop offset="0.946" stop-color="#303030"/><stop offset="0.976" stop-color="#272727"/><stop offset="1" stop-color="#1a1a1a"/></linearGradient></defs><g transform="translate(9 315.892) rotate(-90)"><g class="d" transform="matrix(0, 1, -1, 0, 315.89, -9)"><path class="a" d="M173.725,656.793h0a.9.9,0,0,0-.9-.9H143.051a.9.9,0,0,0-.9.9h0a.9.9,0,0,1-.9.9H56.387A56.387,56.387,0,0,1,0,601.309V56.387A56.387,56.387,0,0,1,56.387,0H259.506a56.387,56.387,0,0,1,56.387,56.387V601.309A56.387,56.387,0,0,1,259.506,657.7H174.628A.9.9,0,0,1,173.725,656.793Z" transform="translate(9 315.89) rotate(-90)"/></g><g transform="translate(2.256 2.571)"><g transform="translate(0 0)"><path class="a" d="M265.9.062a4.783,4.783,0,0,0-5.551,4.717v9.17h0A14.548,14.548,0,0,1,245.8,28.5H65.585A14.548,14.548,0,0,1,51.037,13.95h0V4.779A4.783,4.783,0,0,0,45.486.062,54.221,54.221,0,0,0,0,53.5V598.422a54.186,54.186,0,0,0,54.131,54.131h83.507a1.81,1.81,0,0,1,1.8-1.8h32.479a1.8,1.8,0,0,1,1.8,1.8H257.25a54.186,54.186,0,0,0,54.131-54.131V53.5A54.221,54.221,0,0,0,265.9.062Z"/></g></g><g transform="translate(2.256 2.571)"><g transform="translate(0 0)"><path class="b" d="M265.9.062a4.783,4.783,0,0,0-5.551,4.717v9.17h0A14.548,14.548,0,0,1,245.8,28.5H65.585A14.548,14.548,0,0,1,51.037,13.95h0V4.779A4.783,4.783,0,0,0,45.486.062,54.221,54.221,0,0,0,0,53.5V598.422a54.186,54.186,0,0,0,54.131,54.131h83.507a1.81,1.81,0,0,1,1.8-1.8h32.479a1.8,1.8,0,0,1,1.8,1.8H257.25a54.186,54.186,0,0,0,54.131-54.131V53.5A54.221,54.221,0,0,0,265.9.062Z"/></g></g><g transform="translate(115.428 11.986)"><path class="c" d="M4.05,8.092a3.461,3.461,0,0,1-.791-.081,3.5,3.5,0,0,1-.748-.222A4.566,4.566,0,0,1,1.8,7.424a5.046,5.046,0,0,1-.608-.506A4.149,4.149,0,0,1,0,4.043,4.1,4.1,0,0,1,1.194,1.188,3.756,3.756,0,0,1,1.8.682,4.65,4.65,0,0,1,2.511.318,5.346,5.346,0,0,1,3.259.075a4.071,4.071,0,0,1,4.86,3.968A4.153,4.153,0,0,1,6.925,6.917,4.094,4.094,0,0,1,4.05,8.092Z" transform="translate(66.33 0)"/><path d="M5.809,1.188A4.116,4.116,0,0,0,2.143.075,5.344,5.344,0,0,0,1.4.318,4.633,4.633,0,0,0,.686.682a3.75,3.75,0,0,0-.608.506c-.029.029-.05.066-.078.1.051-.038.092-.087.145-.121A4.645,4.645,0,0,1,.854.8,5.284,5.284,0,0,1,1.6.556a4.071,4.071,0,0,1,4.86,3.968,4.134,4.134,0,0,1-1.1,2.755,3.816,3.816,0,0,0,.445-.362A4.153,4.153,0,0,0,7,4.043,4.109,4.109,0,0,0,5.809,1.188Z" transform="translate(67.446 0)"/><path class="c" d="M2.025,4.024A2.027,2.027,0,0,1,.587,3.417,1.963,1.963,0,0,1,0,2,2.044,2.044,0,0,1,.587.562a2.094,2.094,0,0,1,2.855,0A2.055,2.055,0,0,1,4.049,2a1.974,1.974,0,0,1-.607,1.418A1.975,1.975,0,0,1,2.025,4.024Z" transform="translate(80.987 2.043)"/><path d="M.871,1.731A.873.873,0,0,1,.253,1.47.845.845,0,0,1,0,.86.879.879,0,0,1,.253.242a.9.9,0,0,1,1.229,0A.885.885,0,0,1,1.742.86a.85.85,0,0,1-.261.61A.85.85,0,0,1,.871,1.731Z" transform="translate(82.141 3.19)"/><path class="c" d="M48.93,4.049H2.025A2.025,2.025,0,1,1,2.025,0H48.93a2.025,2.025,0,1,1,0,4.049Z" transform="translate(0 2.021)"/><path d="M1.558.722H48.464a2.025,2.025,0,0,1,2.025,2.025,1.959,1.959,0,0,1-.105.522,1.986,1.986,0,0,0,.466-1.244A2.025,2.025,0,0,0,48.825,0H1.919A2,2,0,0,0,0,1.5,1.989,1.989,0,0,1,1.558.722Z" transform="translate(0.105 2.021)"/></g></g></svg>