<svg xmlns="http://www.w3.org/2000/svg" width="347" height="70" viewBox="0 0 347 70"><defs><style>.a{fill:#ff4e52;}.b,.e{fill:#fff;}.b{font-size:26px;font-family:AppleSDGothicNeo-Bold, Apple SD Gothic Neo;font-weight:700;}.c{font-family:NotoSansMyanmar-Bold, Noto Sans Myanmar;}.d{font-family:Helvetica-Bold, Helvetica;}</style></defs><g transform="translate(-1217 -1044)"><rect class="a" width="347" height="70" rx="35" transform="translate(1217 1044)"/><text class="b" transform="translate(1519.593 1085.833)"><tspan x="-181.684" y="0">비버블록</tspan><tspan class="c" y="0"> </tspan><tspan class="d" y="0">TV</tspan><tspan class="c" y="0"> </tspan><tspan y="0">채널</tspan></text><path class="e" d="M154.84,492.211a7.073,7.073,0,0,0-4.993-4.992c-4.4-1.18-22.062-1.18-22.062-1.18s-17.659,0-22.062,1.18a7.073,7.073,0,0,0-4.993,4.992c-1.18,4.4-1.18,13.592-1.18,13.592s0,9.188,1.18,13.592a7.073,7.073,0,0,0,4.993,4.992c4.4,1.18,22.062,1.18,22.062,1.18s17.659,0,22.062-1.18a7.073,7.073,0,0,0,4.993-4.992c1.18-4.4,1.18-13.592,1.18-13.592S156.02,496.615,154.84,492.211Zm-32.7,22.063V497.333l14.671,8.471Z" transform="translate(1161.857 573.066)"/></g></svg>